<svg width="667" height="588" viewBox="0 0 667 588" fill="none" xmlns="http://www.w3.org/2000/svg">
<circle cx="326" cy="294" r="294" fill="url(#paint0_linear_81_119)"/>
<circle cx="326" cy="294" r="235" fill="#1788FF"/>
<path d="M666.254 475.689C666.254 481.212 661.776 485.689 656.254 485.689H390C384.477 485.689 380 481.212 380 475.689V89.7285C380 84.2056 384.477 79.7285 390 79.7285H656.254C661.776 79.7285 666.254 84.2056 666.254 89.7285V475.689Z" fill="white"/>
<path d="M666.254 475.689C666.254 481.212 661.776 485.689 656.254 485.689H390C384.477 485.689 380 481.212 380 475.689V89.7285C380 84.2056 384.477 79.7285 390 79.7285H656.254C661.776 79.7285 666.254 84.2056 666.254 89.7285V475.689ZM384.229 469.691C384.229 475.214 388.707 479.691 394.229 479.691H652.024C657.547 479.691 662.024 475.214 662.024 469.691V95.7265C662.024 90.2037 657.547 85.7265 652.024 85.7265H394.229C388.707 85.7265 384.229 90.2036 384.229 95.7265V469.691Z" fill="#E5E5E5"/>
<path d="M622.605 254.246H439.021V263.436H622.605V254.246Z" fill="#007CFF"/>
<path d="M622.605 278.141H439.021V287.332H622.605V278.141Z" fill="#007CFF"/>
<path d="M622.605 302.037H439.021V311.228H622.605V302.037Z" fill="#007CFF"/>
<path d="M427.878 266.186C430.214 266.186 432.107 263.5 432.107 260.187C432.107 256.875 430.214 254.189 427.878 254.189C425.542 254.189 423.649 256.875 423.649 260.187C423.649 263.5 425.542 266.186 427.878 266.186Z" fill="#007CFF"/>
<path d="M622.605 151.28H439.021V160.47H622.605V151.28Z" fill="#E5E5E5"/>
<path d="M622.605 175.175H439.021V184.366H622.605V175.175Z" fill="#E5E5E5"/>
<path d="M622.605 199.071H439.021V208.262H622.605V199.071Z" fill="#E5E5E5"/>
<path d="M427.878 162.22C430.214 162.22 432.107 159.534 432.107 156.222C432.107 152.909 430.214 150.224 427.878 150.224C425.542 150.224 423.649 152.909 423.649 156.222C423.649 159.534 425.542 162.22 427.878 162.22Z" fill="#E5E5E5"/>
<path d="M622.605 358.211H439.021V367.402H622.605V358.211Z" fill="#E5E5E5"/>
<path d="M622.605 382.107H439.021V391.298H622.605V382.107Z" fill="#E5E5E5"/>
<path d="M622.605 406.003H439.021V415.194H622.605V406.003Z" fill="#E5E5E5"/>
<path d="M427.878 369.152C430.214 369.152 432.107 366.466 432.107 363.154C432.107 359.841 430.214 357.156 427.878 357.156C425.542 357.156 423.649 359.841 423.649 363.154C423.649 366.466 425.542 369.152 427.878 369.152Z" fill="#E5E5E5"/>
<line x1="326" y1="276" x2="380" y2="276" stroke="#E5E5E5" stroke-width="4"/>
<line x1="272" y1="160" x2="326" y2="160" stroke="#E5E5E5" stroke-width="4"/>
<line x1="272" y1="389" x2="326" y2="389" stroke="#E5E5E5" stroke-width="4"/>
<line x1="328" y1="158" x2="328" y2="391" stroke="#E5E5E5" stroke-width="4"/>
<rect x="2" y="112" width="268" height="96" rx="8" fill="#FCFCFC" stroke="#E5E5E5" stroke-width="4"/>
<path d="M87.3023 149C86.6913 149.002 86.1057 149.371 85.6741 150.027C85.2424 150.684 85 151.573 85 152.5C85 153.427 85.2424 154.316 85.6741 154.973C86.1057 155.629 86.6913 155.998 87.3023 156H255.698C256.309 155.998 256.894 155.629 257.326 154.973C257.758 154.316 258 153.427 258 152.5C258 151.573 257.758 150.684 257.326 150.027C256.894 149.371 256.309 149.002 255.698 149H87.3023Z" fill="#007CFF"/>
<path d="M87.5178 168C86.8515 167.998 86.2118 168.365 85.7397 169.02C85.2675 169.675 85.0014 170.564 85 171.493C84.9986 172.421 85.262 173.312 85.7322 173.97C86.2024 174.627 86.8409 174.998 87.5072 175H203.483C203.813 175.001 204.141 174.911 204.446 174.735C204.751 174.56 205.029 174.302 205.263 173.977C205.496 173.652 205.682 173.266 205.808 172.841C205.935 172.416 206 171.96 206 171.5C206 171.04 205.935 170.584 205.808 170.159C205.682 169.734 205.496 169.348 205.263 169.023C205.029 168.698 204.751 168.44 204.446 168.265C204.141 168.089 203.813 167.999 203.483 168H87.5178Z" fill="#007CFF"/>
<path d="M40.7782 171.517H40.7675C40.509 171.516 40.2537 171.459 40.0188 171.351C39.7838 171.244 39.5746 171.087 39.4049 170.892L29.7052 159.755C29.5476 159.574 29.4271 159.365 29.3506 159.138C29.2741 158.911 29.2431 158.671 29.2593 158.433C29.2756 158.194 29.3388 157.96 29.4453 157.746C29.5518 157.531 29.6996 157.34 29.8801 157.183C30.0607 157.026 30.2705 156.906 30.4975 156.829C30.7245 156.753 30.9643 156.723 31.2032 156.739C31.442 156.756 31.6753 156.82 31.8895 156.927C32.1037 157.034 32.2947 157.182 32.4517 157.363L40.7942 166.942L65.8387 138.845C65.9977 138.666 66.1903 138.52 66.4057 138.415C66.621 138.311 66.8549 138.25 67.0938 138.236C67.3328 138.222 67.5721 138.255 67.7982 138.334C68.0243 138.412 68.2327 138.535 68.4114 138.694C68.5901 138.853 68.7356 139.046 68.8397 139.262C68.9438 139.477 69.0043 139.711 69.0178 139.95C69.0314 140.189 68.9976 140.429 68.9186 140.654C68.8395 140.88 68.7167 141.089 68.5571 141.267L42.1373 170.908C41.9665 171.1 41.7572 171.253 41.5229 171.358C41.2887 171.463 41.0349 171.517 40.7782 171.517Z" fill="#007CFF"/>
<path d="M41 191C33.3087 191 25.9325 187.945 20.4939 182.506C15.0554 177.068 12 169.691 12 162C12 154.309 15.0554 146.932 20.4939 141.494C25.9325 136.055 33.3087 133 41 133C41.2652 133 41.5196 133.105 41.7071 133.293C41.8947 133.48 42 133.735 42 134C42 134.265 41.8947 134.52 41.7071 134.707C41.5196 134.895 41.2652 135 41 135C35.6599 135 30.4398 136.584 25.9997 139.551C21.5597 142.517 18.0991 146.734 16.0556 151.668C14.0121 156.601 13.4775 162.03 14.5193 167.268C15.5612 172.505 18.1327 177.316 21.9088 181.092C25.6848 184.868 30.4957 187.439 35.7332 188.481C40.9707 189.523 46.3995 188.988 51.333 186.945C56.2666 184.901 60.4834 181.44 63.4502 177C66.417 172.56 68.0005 167.34 68.0005 162C68.0005 161.735 68.1058 161.48 68.2934 161.293C68.4809 161.105 68.7353 161 69.0005 161C69.2657 161 69.52 161.105 69.7076 161.293C69.8951 161.48 70.0005 161.735 70.0005 162C69.9917 169.689 66.9335 177.06 61.4967 182.497C56.0599 187.933 48.6887 190.991 41 191Z" fill="#3F3D56"/>
<rect x="2" y="334" width="268" height="96" rx="8" fill="#FCFCFC" stroke="#E5E5E5" stroke-width="4"/>
<path d="M87.3023 371C86.6913 371.002 86.1057 371.371 85.6741 372.027C85.2424 372.684 85 373.573 85 374.5C85 375.427 85.2424 376.316 85.6741 376.973C86.1057 377.629 86.6913 377.998 87.3023 378H255.698C256.309 377.998 256.894 377.629 257.326 376.973C257.758 376.316 258 375.427 258 374.5C258 373.573 257.758 372.684 257.326 372.027C256.894 371.371 256.309 371.002 255.698 371H87.3023Z" fill="#007CFF"/>
<path d="M87.5178 390C86.8515 389.998 86.2118 390.365 85.7397 391.02C85.2675 391.675 85.0014 392.564 85 393.493C84.9986 394.421 85.262 395.312 85.7322 395.97C86.2024 396.627 86.8409 396.998 87.5072 397H203.483C203.813 397.001 204.141 396.911 204.446 396.735C204.751 396.56 205.029 396.302 205.263 395.977C205.496 395.652 205.682 395.266 205.808 394.841C205.935 394.416 206 393.96 206 393.5C206 393.04 205.935 392.584 205.808 392.159C205.682 391.734 205.496 391.348 205.263 391.023C205.029 390.698 204.751 390.44 204.446 390.265C204.141 390.089 203.813 389.999 203.483 390H87.5178Z" fill="#007CFF"/>
<path d="M40.7782 393.517H40.7675C40.509 393.516 40.2537 393.459 40.0188 393.351C39.7838 393.244 39.5746 393.087 39.4049 392.892L29.7052 381.755C29.5476 381.574 29.4271 381.365 29.3506 381.138C29.2741 380.911 29.2431 380.671 29.2593 380.433C29.2756 380.194 29.3388 379.96 29.4453 379.746C29.5518 379.531 29.6996 379.34 29.8801 379.183C30.0607 379.026 30.2705 378.906 30.4975 378.829C30.7245 378.753 30.9643 378.723 31.2032 378.739C31.442 378.756 31.6753 378.82 31.8895 378.927C32.1037 379.034 32.2947 379.182 32.4517 379.363L40.7942 388.942L65.8387 360.845C65.9977 360.666 66.1903 360.52 66.4057 360.415C66.621 360.311 66.8549 360.25 67.0938 360.236C67.3328 360.222 67.5721 360.255 67.7982 360.334C68.0243 360.412 68.2327 360.535 68.4114 360.694C68.5901 360.853 68.7356 361.046 68.8397 361.262C68.9438 361.477 69.0043 361.711 69.0178 361.95C69.0314 362.189 68.9976 362.429 68.9186 362.654C68.8395 362.88 68.7167 363.089 68.5571 363.267L42.1373 392.908C41.9665 393.1 41.7572 393.253 41.5229 393.358C41.2887 393.463 41.0349 393.517 40.7782 393.517Z" fill="#007CFF"/>
<path d="M41 413C33.3087 413 25.9325 409.945 20.4939 404.506C15.0554 399.068 12 391.691 12 384C12 376.309 15.0554 368.932 20.4939 363.494C25.9325 358.055 33.3087 355 41 355C41.2652 355 41.5196 355.105 41.7071 355.293C41.8947 355.48 42 355.735 42 356C42 356.265 41.8947 356.52 41.7071 356.707C41.5196 356.895 41.2652 357 41 357C35.6599 357 30.4398 358.584 25.9997 361.551C21.5597 364.517 18.0991 368.734 16.0556 373.668C14.0121 378.601 13.4775 384.03 14.5193 389.268C15.5612 394.505 18.1327 399.316 21.9088 403.092C25.6848 406.868 30.4957 409.439 35.7332 410.481C40.9707 411.523 46.3995 410.988 51.333 408.945C56.2666 406.901 60.4834 403.44 63.4502 399C66.417 394.56 68.0005 389.34 68.0005 384C68.0005 383.735 68.1058 383.48 68.2934 383.293C68.4809 383.105 68.7353 383 69.0005 383C69.2657 383 69.52 383.105 69.7076 383.293C69.8951 383.48 70.0005 383.735 70.0005 384C69.9917 391.689 66.9335 399.06 61.4967 404.497C56.0599 409.933 48.6887 412.991 41 413Z" fill="#3F3D56"/>
<defs>
<linearGradient id="paint0_linear_81_119" x1="326" y1="0" x2="326" y2="588" gradientUnits="userSpaceOnUse">
<stop stop-color="#1788FF"/>
<stop offset="0.642215" stop-color="#0C67C8"/>
<stop offset="1" stop-color="#004691"/>
</linearGradient>
</defs>
</svg>
